<svg xmlns="http://www.w3.org/2000/svg" xmlns:xlink="http://www.w3.org/1999/xlink" width="139" height="126.652" viewBox="0 0 139 126.652">
  <defs>
    <style>
      .cls-1 {
        fill: #f78077;
      }

      .cls-2 {
        fill: #fdcd06;
      }

      .cls-3 {
        clip-path: url(#clip-path);
      }
    </style>
    <clipPath id="clip-path">
      <rect id="Rectangle_3018" data-name="Rectangle 3018" class="cls-1" width="59" height="97" transform="translate(840 6779)"/>
    </clipPath>
  </defs>
  <g id="_10000_hours_learning" data-name="10000_hours_learning" transform="translate(-760 -6749.348)">
    <g id="Group_2673" data-name="Group 2673">
      <rect id="Rectangle_2965" data-name="Rectangle 2965" class="cls-2" width="4.205" height="4.205" transform="translate(808.358 6782.989)"/>
      <rect id="Rectangle_2966" data-name="Rectangle 2966" class="cls-2" width="4.205" height="4.205" transform="translate(787.333 6782.989)"/>
      <rect id="Rectangle_2967" data-name="Rectangle 2967" class="cls-2" width="4.205" height="8.41" transform="translate(799.948 6787.194)"/>
      <path id="Path_5075" data-name="Path 5075" class="cls-2" d="M27.5,16.212V12.007a2.1,2.1,0,0,0-2.1-2.1H8.579a2.1,2.1,0,0,0-2.1,2.1v4.205a10.513,10.513,0,0,0,21.025,0Zm-4.205,0a6.308,6.308,0,0,1-12.615,0v-2.1H23.3Z" transform="translate(785.062 6789.904)"/>
      <g id="Group_2671" data-name="Group 2671">
        <path id="Path_5076" data-name="Path 5076" class="cls-2" d="M116.4,11.048a2.1,2.1,0,0,0-2.1,2.1V67.816H80.658V38.38a8.41,8.41,0,0,0-8.41-8.41H9.172a8.41,8.41,0,0,0-8.41,8.41V78.329a2.1,2.1,0,0,0,2.1,2.1H124.811a2.1,2.1,0,0,0,2.1-2.1V21.56A10.525,10.525,0,0,0,116.4,11.048ZM13.377,76.226H4.967V38.38a4.205,4.205,0,0,1,4.205-4.205h4.205ZM48.25,34.175l-7.4,7.4-6.165-7.4ZM44.324,63.611H40.25L36.515,48.683a2.1,2.1,0,0,1,2.1-1.892,2.248,2.248,0,0,1,2.1,2.1,2.069,2.069,0,0,0,.063.509ZM32.3,76.226H17.582v-8.41H32.3ZM17.582,63.611V34.175H29.211l7.323,8.789A6.3,6.3,0,0,0,32.3,48.893a2.069,2.069,0,0,0,.063.509l3.553,14.209ZM49.12,76.226H36.5v-8.41H49.12Zm14.718,0H53.325V65.713a2.1,2.1,0,0,0-2.1-2.1H48.658L44.915,48.605a6.232,6.232,0,0,0-1.486-3.654L54.2,34.175h9.642Zm12.615,0h-8.41V34.175h4.205a4.205,4.205,0,0,1,4.205,4.205Zm46.256,0H80.658V72.021h42.051Zm0-8.41H118.5v-52.2a6.32,6.32,0,0,1,4.205,5.948Z" transform="translate(759.238 6795.069)"/>
        <path id="Path_5077" data-name="Path 5077" class="cls-2" d="M48.931,2.865A7.056,7.056,0,0,0,43.9,4.911,9,9,0,0,0,30.008,3.342,9.2,9.2,0,0,0,23.7.762a8.41,8.41,0,0,0-7.256,4.205H13.188A8.41,8.41,0,0,0,8.142,20.106a6.278,6.278,0,0,0,2.944,9.705v4.8a10.513,10.513,0,0,0,0,20.6V70.146a2.1,2.1,0,0,0,2.1,2.1H51.033a2.1,2.1,0,0,0,2.1-2.1V55.218a10.513,10.513,0,0,0,0-20.6V29.87a7.964,7.964,0,0,0,5.549-7.586,6.505,6.505,0,0,0-3.11-5.677,9.157,9.157,0,0,0,1.766-5.332A8.41,8.41,0,0,0,48.931,2.865Zm-37.846,48a6.308,6.308,0,0,1,0-11.9Zm37.846,17.18H15.29V30.2h33.64Zm8.41-23.128a6.32,6.32,0,0,1-4.205,5.948v-11.9a6.32,6.32,0,0,1,4.205,5.948ZM51.033,25.993H13.188a2.1,2.1,0,0,1,0-4.205,2.1,2.1,0,1,0,0-4.205,4.205,4.205,0,0,1,0-8.41H17.78a2.1,2.1,0,0,0,1.98-1.4A4.205,4.205,0,0,1,23.7,4.967a4.739,4.739,0,0,1,4.327,2.807,2.1,2.1,0,0,0,3.961,0,4.739,4.739,0,0,1,8.654,0,2.1,2.1,0,0,0,1.981,1.4h2.1a2.1,2.1,0,0,0,1.562-.7A3.242,3.242,0,0,1,48.931,7.07a4.205,4.205,0,0,1,4.205,4.205A4.739,4.739,0,0,1,50.329,15.6a2.1,2.1,0,0,0,.7,4.083c1.571,0,3.446.452,3.446,2.6A3.658,3.658,0,0,1,51.033,25.993Z" transform="translate(767.837 6748.586)"/>
      </g>
    </g>
    <g id="Group_4666" data-name="Group 4666">
      <rect id="Rectangle_2968" data-name="Rectangle 2968" class="cls-1" width="4.205" height="26.761" transform="translate(844.718 6799.193) rotate(-45)"/>
      <rect id="Rectangle_2969" data-name="Rectangle 2969" class="cls-1" width="17.964" height="4.207" transform="translate(845.466 6833.585) rotate(-20.576)"/>
      <g id="Mask_Group_74" data-name="Mask Group 74" class="cls-3">
        <g id="Group_2672" data-name="Group 2672">
          <rect id="Rectangle_2965-2" data-name="Rectangle 2965" class="cls-1" width="4.205" height="4.205" transform="translate(808.358 6782.989)"/>
          <rect id="Rectangle_2966-2" data-name="Rectangle 2966" class="cls-1" width="4.205" height="4.205" transform="translate(787.333 6782.989)"/>
          <rect id="Rectangle_2967-2" data-name="Rectangle 2967" class="cls-1" width="4.205" height="8.41" transform="translate(799.948 6787.194)"/>
          <path id="Path_5075-2" data-name="Path 5075" class="cls-1" d="M27.5,16.212V12.007a2.1,2.1,0,0,0-2.1-2.1H8.579a2.1,2.1,0,0,0-2.1,2.1v4.205a10.513,10.513,0,0,0,21.025,0Zm-4.205,0a6.308,6.308,0,0,1-12.615,0v-2.1H23.3Z" transform="translate(785.062 6789.904)"/>
          <g id="Group_2671-2" data-name="Group 2671">
            <path id="Path_5076-2" data-name="Path 5076" class="cls-1" d="M116.4,11.048a2.1,2.1,0,0,0-2.1,2.1V67.816H80.658V38.38a8.41,8.41,0,0,0-8.41-8.41H9.172a8.41,8.41,0,0,0-8.41,8.41V78.329a2.1,2.1,0,0,0,2.1,2.1H124.811a2.1,2.1,0,0,0,2.1-2.1V21.56A10.525,10.525,0,0,0,116.4,11.048ZM13.377,76.226H4.967V38.38a4.205,4.205,0,0,1,4.205-4.205h4.205ZM48.25,34.175l-7.4,7.4-6.165-7.4ZM44.324,63.611H40.25L36.515,48.683a2.1,2.1,0,0,1,2.1-1.892,2.248,2.248,0,0,1,2.1,2.1,2.069,2.069,0,0,0,.063.509ZM32.3,76.226H17.582v-8.41H32.3ZM17.582,63.611V34.175H29.211l7.323,8.789A6.3,6.3,0,0,0,32.3,48.893a2.069,2.069,0,0,0,.063.509l3.553,14.209ZM49.12,76.226H36.5v-8.41H49.12Zm14.718,0H53.325V65.713a2.1,2.1,0,0,0-2.1-2.1H48.658L44.915,48.605a6.232,6.232,0,0,0-1.486-3.654L54.2,34.175h9.642Zm12.615,0h-8.41V34.175h4.205a4.205,4.205,0,0,1,4.205,4.205Zm46.256,0H80.658V72.021h42.051Zm0-8.41H118.5v-52.2a6.32,6.32,0,0,1,4.205,5.948Z" transform="translate(759.238 6795.069)"/>
            <path id="Path_5077-2" data-name="Path 5077" class="cls-1" d="M48.931,2.865A7.056,7.056,0,0,0,43.9,4.911,9,9,0,0,0,30.008,3.342,9.2,9.2,0,0,0,23.7.762a8.41,8.41,0,0,0-7.256,4.205H13.188A8.41,8.41,0,0,0,8.142,20.106a6.278,6.278,0,0,0,2.944,9.705v4.8a10.513,10.513,0,0,0,0,20.6V70.146a2.1,2.1,0,0,0,2.1,2.1H51.033a2.1,2.1,0,0,0,2.1-2.1V55.218a10.513,10.513,0,0,0,0-20.6V29.87a7.964,7.964,0,0,0,5.549-7.586,6.505,6.505,0,0,0-3.11-5.677,9.157,9.157,0,0,0,1.766-5.332A8.41,8.41,0,0,0,48.931,2.865Zm-37.846,48a6.308,6.308,0,0,1,0-11.9Zm37.846,17.18H15.29V30.2h33.64Zm8.41-23.128a6.32,6.32,0,0,1-4.205,5.948v-11.9a6.32,6.32,0,0,1,4.205,5.948ZM51.033,25.993H13.188a2.1,2.1,0,0,1,0-4.205,2.1,2.1,0,1,0,0-4.205,4.205,4.205,0,0,1,0-8.41H17.78a2.1,2.1,0,0,0,1.98-1.4A4.205,4.205,0,0,1,23.7,4.967a4.739,4.739,0,0,1,4.327,2.807,2.1,2.1,0,0,0,3.961,0,4.739,4.739,0,0,1,8.654,0,2.1,2.1,0,0,0,1.981,1.4h2.1a2.1,2.1,0,0,0,1.562-.7A3.242,3.242,0,0,1,48.931,7.07a4.205,4.205,0,0,1,4.205,4.205A4.739,4.739,0,0,1,50.329,15.6a2.1,2.1,0,0,0,.7,4.083c1.571,0,3.446.452,3.446,2.6A3.658,3.658,0,0,1,51.033,25.993Z" transform="translate(767.837 6748.586)"/>
          </g>
        </g>
      </g>
    </g>
  </g>
</svg>
