<svg xmlns="http://www.w3.org/2000/svg" xmlns:xlink="http://www.w3.org/1999/xlink" width="146" height="127" viewBox="0 0 146 127">
  <defs>
    <style>
      .cls-1 {
        fill: #fff;
      }

      .cls-2 {
        clip-path: url(#clip-path);
      }

      .cls-3 {
        fill: #fdcd06;
      }

      .cls-4 {
        fill: #f78077;
      }
    </style>
    <clipPath id="clip-path">
      <rect id="Rectangle_3011" data-name="Rectangle 3011" class="cls-1" width="146" height="127" transform="translate(191 6291)"/>
    </clipPath>
  </defs>
  <g id="_100k_coding" data-name="100k_coding" class="cls-2" transform="translate(-191 -6291)">
    <g id="social-care" transform="translate(200.5 6291)">
      <g id="Group_2669" data-name="Group 2669">
        <g id="Group_2651" data-name="Group 2651">
          <g id="Group_2650" data-name="Group 2650">
            <path id="Path_5136" data-name="Path 5136" class="cls-3" d="M27.244,123.083l-3.734-5.26a2.48,2.48,0,1,0-4.045,2.872l3.734,5.26a2.48,2.48,0,1,0,4.045-2.872Z"/>
          </g>
        </g>
        <g id="Group_2653" data-name="Group 2653">
          <g id="Group_2652" data-name="Group 2652">
            <path id="Path_5137" data-name="Path 5137" class="cls-3" d="M55.861,124.01,51.8,104.64A36.53,36.53,0,0,0,36.348,81.707l-8.677-5.835A8.728,8.728,0,0,0,16.607,77V47.113a8.3,8.3,0,0,0-13.5-6.476A8.264,8.264,0,0,0,0,47.113v38.46A24.027,24.027,0,0,0,4.459,99.556l4.423,6.231a2.48,2.48,0,1,0,4.045-2.872L8.5,96.684A19.092,19.092,0,0,1,4.961,85.573V47.113a3.343,3.343,0,1,1,6.685,0V77.627a17.331,17.331,0,0,0,4.47,11.637c.124.148.251.295.385.437,1.647,1.745,3.584,3.8,5.408,5.741l2.554,2.718.026.025c2.185,2.323,3.8,4.039,3.829,4.075a2.48,2.48,0,1,0,3.616-3.4c-.045-.048-2.949-3.14-6.265-6.665l-5.687-6.053L19.94,86.1a4.185,4.185,0,0,1,.081-5.486,3.75,3.75,0,0,1,4.883-.623l8.676,5.835a31.593,31.593,0,0,1,13.362,19.835l4.064,19.37a2.48,2.48,0,1,0,4.855-1.019Z"/>
          </g>
        </g>
        <g id="Group_2655" data-name="Group 2655">
          <g id="Group_2654" data-name="Group 2654">
            <path id="Path_5138" data-name="Path 5138" class="cls-3" d="M18.377,110.593l-.016-.022a2.48,2.48,0,0,0-4.038,2.881l.016.022a2.48,2.48,0,0,0,4.038-2.881Z"/>
          </g>
        </g>
        <g id="Group_2657" data-name="Group 2657">
          <g id="Group_2656" data-name="Group 2656">
            <path id="Path_5139" data-name="Path 5139" class="cls-3" d="M123.893,40.637a8.3,8.3,0,0,0-13.5,6.476V77a8.728,8.728,0,0,0-11.064-1.129l-8.677,5.834A36.528,36.528,0,0,0,75.2,104.64l-4.064,19.37a2.48,2.48,0,1,0,4.855,1.018l4.064-19.37A31.594,31.594,0,0,1,93.419,85.824L102.1,79.99a3.75,3.75,0,0,1,4.883.623,4.186,4.186,0,0,1,.086,5.48l-.047.053L95.066,98.863a2.48,2.48,0,1,0,3.616,3.4c.034-.036,10.169-10.813,11.817-12.558.134-.142.261-.289.385-.437a17.332,17.332,0,0,0,4.47-11.637V47.113a3.343,3.343,0,1,1,6.686,0v38.46A19.092,19.092,0,0,1,118.5,96.684l-18.74,26.4a2.48,2.48,0,1,0,4.045,2.872l18.74-26.4A24.027,24.027,0,0,0,127,85.574V47.113A8.266,8.266,0,0,0,123.893,40.637Z"/>
          </g>
        </g>
      </g>
      <g id="Group_2670" data-name="Group 2670">
        <g id="Group_2659" data-name="Group 2659">
          <g id="Group_2658" data-name="Group 2658">
            <path id="Path_5140" data-name="Path 5140" class="cls-4" d="M94.917,47.54,90.5,46.486V45.7a11.094,11.094,0,0,0,4.749-9.1V30.862a11.093,11.093,0,0,0-18.3-8.438,14.483,14.483,0,0,0-26.843.02,11.093,11.093,0,0,0-18.328,8.417V36.6a11.094,11.094,0,0,0,4.749,9.1v.791L32.114,47.54a11.62,11.62,0,0,0-8.949,11.339v4.633a2.481,2.481,0,0,0,2.48,2.48h11.4c-.018.3-.03.6-.03.908v8.919a2.481,2.481,0,0,0,2.48,2.48H54.4a2.48,2.48,0,0,0,0-4.961H51.842V68.213a2.48,2.48,0,1,0-4.961,0v5.126H41.975V66.9a10.27,10.27,0,0,1,7.9-10.019l6.807-1.631,4.555,10.364a2.48,2.48,0,0,0,2.27,1.482h0a2.48,2.48,0,0,0,2.271-1.482L70.33,55.266l6.785,1.621a10.269,10.269,0,0,1,7.908,10.02v6.432H80.119V68.213a2.48,2.48,0,1,0-4.961,0v5.126H72.347a2.48,2.48,0,0,0,0,4.961H87.5a2.481,2.481,0,0,0,2.48-2.48V66.907c0-.307-.012-.612-.03-.915h11.43a2.481,2.481,0,0,0,2.48-2.48V58.879A11.62,11.62,0,0,0,94.917,47.54ZM84.151,24.721a6.149,6.149,0,0,1,6.127,5.736H86.83a18.08,18.08,0,0,1-8.317-2.027A6.149,6.149,0,0,1,84.151,24.721ZM78.01,36.236c0-.121.009-.241.009-.363V33.665a23.041,23.041,0,0,0,8.81,1.753h3.462V36.6a6.141,6.141,0,1,1-12.281,0ZM54,27.883h0a9.528,9.528,0,0,1,18.935-1.514l-4.176-2.453a2.48,2.48,0,0,0-3.158.546,10.687,10.687,0,0,1-8.211,3.832H54v-.41ZM42.88,24.721a6.15,6.15,0,0,1,5.638,3.708A18.081,18.081,0,0,1,40.2,30.456H36.753A6.149,6.149,0,0,1,42.88,24.721Zm-6.141,10.7H40.2a23.042,23.042,0,0,0,8.819-1.756V36.6a6.141,6.141,0,0,1-12.281,0V35.417ZM48.72,52.057A15.212,15.212,0,0,0,38.18,61.031H28.126V58.879a6.675,6.675,0,0,1,5.141-6.514l6.317-1.509a2.48,2.48,0,0,0,1.9-2.412V47.61a10.768,10.768,0,0,0,2.773,0v.708c0,.037,0,.074,0,.111a2.484,2.484,0,0,0,2.016,2.441l3.7.887Zm6.919-3.851a11.638,11.638,0,0,0-1.986-.67l-4.431-1.062V45.7a11.192,11.192,0,0,0,2.15-1.964,14.6,14.6,0,0,0,4.267,4.277v.191Zm10.773,3.645-2.9,6.6L60.6,51.834v-1.77a14.537,14.537,0,0,0,5.812.009ZM63.531,45.4A9.538,9.538,0,0,1,54,35.874v-2.62h3.391a15.629,15.629,0,0,0,10.54-4.072l5.115,3.005v4.049A9.537,9.537,0,0,1,63.531,45.4Zm7.842,2.813v-.168a14.6,14.6,0,0,0,4.3-4.288A11.19,11.19,0,0,0,77.808,45.7v.773l-4.431,1.062A11.68,11.68,0,0,0,71.373,48.214ZM98.9,61.031H88.817a15.209,15.209,0,0,0-10.548-8.969l-1.245-.3,3.72-.891A2.483,2.483,0,0,0,82.77,48.43c0-.019,0-.039,0-.058v-.761a10.767,10.767,0,0,0,2.773,0v.834a2.48,2.48,0,0,0,1.9,2.412l6.317,1.509A6.676,6.676,0,0,1,98.9,58.879v2.152Z"/>
          </g>
        </g>
        <g id="Group_2661" data-name="Group 2661">
          <g id="Group_2660" data-name="Group 2660">
            <path id="Path_5141" data-name="Path 5141" class="cls-4" d="M65.253,74.064a2.482,2.482,0,1,0,.727,1.756A2.5,2.5,0,0,0,65.253,74.064Z"/>
          </g>
        </g>
        <g id="Group_2663" data-name="Group 2663">
          <g id="Group_2662" data-name="Group 2662">
            <path id="Path_5142" data-name="Path 5142" class="cls-4" d="M63.5,0a2.481,2.481,0,0,0-2.48,2.48V6.192a2.48,2.48,0,1,0,4.961,0V2.48A2.48,2.48,0,0,0,63.5,0Z"/>
          </g>
        </g>
        <g id="Group_2665" data-name="Group 2665">
          <g id="Group_2664" data-name="Group 2664">
            <path id="Path_5143" data-name="Path 5143" class="cls-4" d="M54.361,8.091l-2.6-2.6A2.48,2.48,0,1,0,48.253,9l2.6,2.6a2.48,2.48,0,1,0,3.506-3.509Z"/>
          </g>
        </g>
        <g id="Group_2667" data-name="Group 2667">
          <g id="Group_2666" data-name="Group 2666">
            <path id="Path_5144" data-name="Path 5144" class="cls-4" d="M78.686,5.555a2.48,2.48,0,0,0-3.508,0L72.6,8.141a2.48,2.48,0,1,0,3.51,3.506l2.582-2.584A2.481,2.481,0,0,0,78.686,5.555Z"/>
          </g>
        </g>
      </g>
    </g>
  </g>
</svg>
