<svg id="doubts_solved" xmlns="http://www.w3.org/2000/svg" width="81.536" height="126.828" viewBox="0 0 81.536 126.828">
  <defs>
    <style>
      .cls-1 {
        fill: #fdcd06;
      }

      .cls-2 {
        fill: #f78077;
      }
    </style>
  </defs>
  <g id="Group_2606" data-name="Group 2606" transform="translate(0 0)">
    <path id="Path_5078" data-name="Path 5078" class="cls-1" d="M6.609,65.193V85.9a2.967,2.967,0,1,0,5.933,0V65.193c0-4.889,2.363-8.489,7.165-10.983A25.473,25.473,0,0,0,31.34,60.542L26.611,77.868a2.964,2.964,0,0,0,1.01,3.1l7.937,6.34a2.962,2.962,0,0,0,3.7,0l7.934-6.34A2.968,2.968,0,0,0,48.2,77.858L43.388,60.474a25.44,25.44,0,0,0,11.4-6.285c5.081,2.5,7.49,6.03,7.49,11.005V85.9a2.967,2.967,0,1,0,5.933,0V65.193c0-4.875-1.765-11.279-9.552-15.671a25.555,25.555,0,1,0-42.817.04C8.313,53.961,6.609,60.339,6.609,65.193Zm30.8,16-4.561-3.644L36.77,63.173h1.2L41.96,77.55Zm-.177-65.409A19.773,19.773,0,1,1,17.6,35.546,19.716,19.716,0,0,1,37.229,15.781Z" transform="translate(2.384 37.958)"/>
    <g id="Group_2676" data-name="Group 2676">
      <path id="Path_5079" data-name="Path 5079" class="cls-2" d="M15.272,20.44a2.967,2.967,0,0,0,4.308-4.08L9.918,6.16a2.966,2.966,0,1,0-4.306,4.08Z" transform="translate(-4.799 19.647)"/>
      <path id="Path_5080" data-name="Path 5080" class="cls-2" d="M11.121,14.706a2.976,2.976,0,0,0,2.1-5.072,3.069,3.069,0,0,0-4.2,0,2.975,2.975,0,0,0,2.1,5.072Z" transform="translate(8.481 33.815)"/>
      <path id="Path_5081" data-name="Path 5081" class="cls-2" d="M16.717,12.96a2.945,2.945,0,0,0,0-4.194,3.069,3.069,0,0,0-4.2,0,2.938,2.938,0,0,0-.863,2.1,2.948,2.948,0,0,0,2.96,2.961A2.937,2.937,0,0,0,16.717,12.96Z" transform="translate(22.423 30.375)"/>
      <path id="Path_5082" data-name="Path 5082" class="cls-2" d="M14.064,17.62a2.966,2.966,0,0,0,1.913-3.733c-.578-1.8-.888-4.3.921-6.042a7.436,7.436,0,0,1,7.386-1.21,6.52,6.52,0,0,1,4.364,5.892c.363,3.475-1.408,5.43-4.325,8.333C21.969,23.2,19.3,25.85,18.529,29.9a2.967,2.967,0,0,0,2.358,3.47,3.041,3.041,0,0,0,.56.054,2.969,2.969,0,0,0,2.911-2.411c.429-2.25,2.153-3.964,4.148-5.948,2.991-2.977,6.715-6.68,6.041-13.155A12.453,12.453,0,0,0,26.32,1.064,13.265,13.265,0,0,0,12.783,3.572c-3.089,2.971-3.983,7.4-2.454,12.137A2.963,2.963,0,0,0,14.064,17.62Z" transform="translate(14.247 -0.226)"/>
      <path id="Path_5083" data-name="Path 5083" class="cls-2" d="M18.891,14.691a2.928,2.928,0,0,0,2.084-.864,2.945,2.945,0,0,0,0-4.194,3.069,3.069,0,0,0-4.2,0,2.961,2.961,0,0,0,2.111,5.058Z" transform="translate(39.318 33.815)"/>
      <path id="Path_5084" data-name="Path 5084" class="cls-2" d="M20.016,27.307a2.953,2.953,0,0,0,2.153-.927c1.03-1.087,2.712-1.449,4.663-1.869,3.086-.664,7.313-1.574,9.674-6.268a10.086,10.086,0,0,0-.88-10.991A10.728,10.728,0,0,0,25.3,3.07c-3.451.686-6.018,3.321-7.051,7.228a2.967,2.967,0,1,0,5.736,1.515c.451-1.7,1.281-2.686,2.471-2.923A4.84,4.84,0,0,1,30.9,10.847a4.217,4.217,0,0,1,.3,4.732c-1.037,2.06-2.642,2.491-5.623,3.132-2.546.548-5.432,1.169-7.723,3.59a2.967,2.967,0,0,0,2.155,5.005Z" transform="translate(43.81 10.377)"/>
    </g>
  </g>
</svg>
