<svg xmlns="http://www.w3.org/2000/svg" width="50.205" height="49" viewBox="0 0 50.205 49">
  <g id="Group_2404" data-name="Group 2404" transform="translate(0 -11)">
    <g id="Group_1429" data-name="Group 1429" transform="translate(0 11)">
      <path id="Path_3833" data-name="Path 3833" d="M49.2,24.2H37.754L26.107,13.854V8.834h7.33a1.006,1.006,0,0,0,1-1V1.6a1.006,1.006,0,0,0-1-1H25.1a1.006,1.006,0,0,0-1,1v12.25L12.451,24.2H1a1.006,1.006,0,0,0-1,1V48.6a1.006,1.006,0,0,0,1,1H49.2a1.006,1.006,0,0,0,1-1V25.2A1.006,1.006,0,0,0,49.2,24.2Zm-17.07,9.84H18.074a1.006,1.006,0,0,0-1,1V47.491H13.756V25.8L25.1,15.662,36.449,25.8V47.592H33.135V35.141A1.1,1.1,0,0,0,32.131,34.037Zm.3-27.312H26.107V2.608h6.326ZM2.109,26.3h9.639V47.592H2.109Zm17.07,9.84H24.1V47.592h-4.92Zm6.928,11.447V36.145h4.92V47.592Zm21.99,0H38.457V26.3H48.1Z" transform="translate(0 -0.6)" fill="#f7f7f7"/>
      <path id="Path_3834" data-name="Path 3834" d="M40.9,34.926h4.318a1.006,1.006,0,0,0,1-1V29.6a1.006,1.006,0,0,0-1-1H40.9a1.006,1.006,0,0,0-1,1v4.318A1.006,1.006,0,0,0,40.9,34.926Zm1.1-4.217h2.209v2.209H42.009Z" transform="translate(0.164 -0.485)" fill="#f7f7f7"/>
      <path id="Path_3835" data-name="Path 3835" d="M40.9,45.026h4.318a1.006,1.006,0,0,0,1-1V39.7a1.006,1.006,0,0,0-1-1H40.9a1.006,1.006,0,0,0-1,1v4.318A1.08,1.08,0,0,0,40.9,45.026Zm1.1-4.318h2.209v2.209H42.009Z" transform="translate(0.164 -0.444)" fill="#f7f7f7"/>
      <path id="Path_3836" data-name="Path 3836" d="M9.022,28.6H4.7a1.006,1.006,0,0,0-1,1v4.318a1.006,1.006,0,0,0,1,1H9.022a1.006,1.006,0,0,0,1-1V29.6C10.126,29,9.624,28.6,9.022,28.6Zm-1,4.217H5.809V30.608H8.018Z" transform="translate(0.015 -0.485)" fill="#f7f7f7"/>
      <path id="Path_3837" data-name="Path 3837" d="M9.022,38.6H4.7a1.006,1.006,0,0,0-1,1v4.418a1.006,1.006,0,0,0,1,1H9.022a1.006,1.006,0,0,0,1-1V39.7A.976.976,0,0,0,9.022,38.6Zm-1,4.318H5.809V40.709H8.018Z" transform="translate(0.015 -0.444)" fill="#f7f7f7"/>
      <path id="Path_3838" data-name="Path 3838" d="M25.017,20.3a4.117,4.117,0,1,0,4.117,4.117A4.135,4.135,0,0,0,25.017,20.3Zm0,6.225a2.008,2.008,0,1,1,2.008-2.008A2.014,2.014,0,0,1,25.017,26.525Z" transform="translate(0.086 -0.519)" fill="#f7f7f7"/>
    </g>
  </g>
</svg>
