<svg xmlns="http://www.w3.org/2000/svg" width="47.635" height="53" viewBox="0 0 47.635 53">
  <g id="Group_2403" data-name="Group 2403" transform="translate(0 -11)">
    <g id="Group_1430" data-name="Group 1430">
      <g id="Group_1428" data-name="Group 1428" transform="translate(0 11)">
        <g id="Group_1427" data-name="Group 1427">
          <path id="Path_3826" data-name="Path 3826" d="M32.361,32.314H55.389A1.007,1.007,0,0,0,56.4,31.307V10.674a1.007,1.007,0,0,0-1.007-1.007H32.361a1.007,1.007,0,0,0-1.007,1.007V31.307A1.007,1.007,0,0,0,32.361,32.314Zm1.007-20.632H54.381V30.3H33.369Z" transform="translate(-20.057 -9.667)" fill="#f7f7f7"/>
          <path id="Path_3827" data-name="Path 3827" d="M41.635,20.146A1.007,1.007,0,1,0,40.356,21.7l2.813,2.31-2.909,2.4a1.008,1.008,0,0,0,1.283,1.554l3.852-3.18a1.008,1.008,0,0,0,0-1.555Z" transform="translate(-22.863 -13.034)" fill="#f7f7f7"/>
          <path id="Path_3828" data-name="Path 3828" d="M55.666,29.249H51.3a1.007,1.007,0,1,0,0,2.015h4.365a1.007,1.007,0,0,0,0-2.015Z" transform="translate(-26.279 -16.1)" fill="#f7f7f7"/>
          <circle id="Ellipse_71" data-name="Ellipse 71" cx="1.343" cy="1.343" r="1.343" transform="translate(2.826 15.859)" fill="#f7f7f7"/>
          <circle id="Ellipse_72" data-name="Ellipse 72" cx="1.343" cy="1.343" r="1.343" transform="translate(0 20.197)" fill="#f7f7f7"/>
          <circle id="Ellipse_73" data-name="Ellipse 73" cx="1.343" cy="1.343" r="1.343" transform="translate(1.483 25.083)" fill="#f7f7f7"/>
          <circle id="Ellipse_74" data-name="Ellipse 74" cx="1.343" cy="1.343" r="1.343" transform="translate(42.123 15.859)" fill="#f7f7f7"/>
          <circle id="Ellipse_75" data-name="Ellipse 75" cx="1.343" cy="1.343" r="1.343" transform="translate(44.949 20.197)" fill="#f7f7f7"/>
          <circle id="Ellipse_76" data-name="Ellipse 76" cx="1.343" cy="1.343" r="1.343" transform="translate(43.466 25.083)" fill="#f7f7f7"/>
          <path id="Path_3829" data-name="Path 3829" d="M27.7,58.449a4.7,4.7,0,1,0-4.7-4.7A4.706,4.706,0,0,0,27.7,58.449Zm0-7.387a2.686,2.686,0,1,1-2.686,2.686A2.689,2.689,0,0,1,27.7,51.062Z" transform="translate(-17.314 -22.603)" fill="#f7f7f7"/>
          <path id="Path_3830" data-name="Path 3830" d="M63,53.748a4.7,4.7,0,1,0,4.7-4.7A4.706,4.706,0,0,0,63,53.748Zm4.7-2.686a2.686,2.686,0,1,1-2.686,2.686A2.689,2.689,0,0,1,67.7,51.062Z" transform="translate(-30.452 -22.603)" fill="#f7f7f7"/>
          <path id="Path_3831" data-name="Path 3831" d="M41.706,56.423a5.569,5.569,0,1,0,5.569-5.569A5.576,5.576,0,0,0,41.706,56.423Zm9.124,0a3.555,3.555,0,1,1-3.555-3.555A3.559,3.559,0,0,1,50.83,56.423Z" transform="translate(-23.458 -23.197)" fill="#f7f7f7"/>
          <path id="Path_3832" data-name="Path 3832" d="M52.582,65.881h-.106A8.809,8.809,0,0,0,44.4,71.186a10.31,10.31,0,0,0-10.608,0,8.81,8.81,0,0,0-8.072-5.305h-.1a8.809,8.809,0,0,0-8.8,8.8v2.392a1.007,1.007,0,1,0,2.015,0V74.68A6.793,6.793,0,0,1,25.62,67.9h.1a6.791,6.791,0,0,1,6.393,4.534,10.372,10.372,0,0,0-3.425,7.7,1.007,1.007,0,1,0,2.015,0,8.347,8.347,0,0,1,1.831-5.218,8.453,8.453,0,0,1,1.85-1.723,8.371,8.371,0,0,1,9.427,0,8.455,8.455,0,0,1,1.878,1.76,8.345,8.345,0,0,1,1.8,5.181,1.007,1.007,0,1,0,2.015,0,10.372,10.372,0,0,0-3.425-7.7A6.79,6.79,0,0,1,52.476,67.9h.106a6.792,6.792,0,0,1,6.785,6.785v2.392a1.007,1.007,0,0,0,2.015,0V74.68A8.809,8.809,0,0,0,52.582,65.881Z" transform="translate(-15.283 -28.133)" fill="#f7f7f7"/>
        </g>
      </g>
    </g>
  </g>
</svg>
