<svg xmlns="http://www.w3.org/2000/svg" width="52.316" height="49" viewBox="0 0 52.316 49">
  <g id="Group_1455" data-name="Group 1455" transform="translate(-949 -11)">
    <g id="Group_1447" data-name="Group 1447" transform="translate(949)">
      <g id="user" transform="translate(0 11)">
        <g id="Group_1446" data-name="Group 1446">
          <path id="Path_3850" data-name="Path 3850" d="M51.549,57.675a.766.766,0,0,0-.766.766v5.12a.129.129,0,0,1-.129.129H47.742v-11.2a.766.766,0,1,0-1.533,0v11.2H40.582l1.523-1.675a1.225,1.225,0,0,0,.3-.983l0-.023L40.686,50.895,41,50.42l.082.058a1.2,1.2,0,0,0,1.768-.442h0l1.742-3.492,3.979,1.541a3.814,3.814,0,0,1,2.21,3.458v3.321a.766.766,0,1,0,1.533,0V51.544a5.344,5.344,0,0,0-3.162-4.877l-.015-.006-6.776-2.624v-1.4a5.6,5.6,0,0,0,2.024-3.476,2.674,2.674,0,0,0,1.423-.627,2.639,2.639,0,0,0,.322-3.669V32.8a7.333,7.333,0,0,0-12.1-5.577,2.634,2.634,0,0,0-.593-1.595V23.563a7.339,7.339,0,1,0-14.678,0v2.122a2.5,2.5,0,0,0-.593,1.534,7.306,7.306,0,0,0-2.89-1.514.766.766,0,1,0-.39,1.482A5.808,5.808,0,0,1,19.207,32.8v1.146l-.143-.026a.883.883,0,0,0-.183-.518c-.2-.282-.548-.633-1.682-1.851a1.211,1.211,0,0,0-1.553-.189A10.951,10.951,0,0,1,9.159,33.15a1.225,1.225,0,0,0-1.348.785l-.217.044V32.8a5.844,5.844,0,0,1,4.129-5.559.766.766,0,1,0-.442-1.468,7.4,7.4,0,0,0-3.742,2.61A7.273,7.273,0,0,0,6.061,32.8v2.122a2.5,2.5,0,0,0-.595,1.615A2.646,2.646,0,0,0,7.81,39.166a5.661,5.661,0,0,0,2.136,3.565v1.306L3.177,46.662l-.014.006A5.343,5.343,0,0,0,0,51.544V63.562a1.664,1.664,0,0,0,1.662,1.662h23.6a1.651,1.651,0,0,0,.9-.264,1.65,1.65,0,0,0,.9.264h23.6a1.664,1.664,0,0,0,1.662-1.662v-5.12A.766.766,0,0,0,51.549,57.675ZM7.735,37.583A1.106,1.106,0,0,1,7,36.539a1.132,1.132,0,0,1,.736-1Zm35.423,8.406L41.654,49l-1.695-1.2,1.881-2.322Zm-4.307.744-1.982-2.446v-.735a6.18,6.18,0,0,0,1.991.326h0a5.666,5.666,0,0,0,1.968-.358v.772Zm.9,2.8-.282.424H38.234l-.282-.424.9-.639Zm-13.6-12.039-1.982-2.446v-.735a6.18,6.18,0,0,0,1.991.326h0a5.665,5.665,0,0,0,1.968-.357v.772Zm.9,2.8-.282.424H25.538l-.282-.424.9-.639Zm-6.935-10.44a2.74,2.74,0,0,0,.385.073,5.661,5.661,0,0,0,2.136,3.565V34.8l-1.563.606a2.627,2.627,0,0,0-.338-.534V32.8A7.321,7.321,0,0,0,20.121,29.854Zm10.107-.812a4.133,4.133,0,0,1-8.264,0v-3.59a12.55,12.55,0,0,0,6.989-1.9c.691.741,1.1,1.171,1.275,1.371C30.228,26.832,30.228,27.569,30.228,29.042Zm1.462.884a2.756,2.756,0,0,0,.383-.074,7.3,7.3,0,0,0-.621,2.949v2.122a2.615,2.615,0,0,0-.3.448L29.667,34.8V33.4A5.6,5.6,0,0,0,31.69,29.927ZM23.164,36.24l1.881,2.322-1.283.911,0,0-.407.289-1.5-3.015Zm4.755,1.511,1.225-1.512,1.318.51-1.5,3.015-.408-.29h0l-1.285-.913Zm.386,3.43.082.058a1.2,1.2,0,0,0,1.768-.442h0l1.293-2.592a2.69,2.69,0,0,0,1.749.963,5.571,5.571,0,0,0,2.139,3.563v1.306l-6.515,2.526-.831-4.908Zm7.554,4.3L37.741,47.8,36.049,49l-1.5-3.015Zm7.064-7.2a4.133,4.133,0,0,1-8.264,0v-3.59a12.556,12.556,0,0,0,6.989-1.9c.691.741,1.1,1.171,1.275,1.371C42.924,36.071,42.924,36.808,42.924,38.281Zm2.269-1.742a1.106,1.106,0,0,1-.736,1.043V35.5A1.1,1.1,0,0,1,45.193,36.539ZM32.985,32.8a5.806,5.806,0,1,1,11.613,0v1.146c-.035-.007-.131-.024-.143-.026a.883.883,0,0,0-.183-.518c-.2-.289-.55-.634-1.682-1.851a1.212,1.212,0,0,0-1.553-.189,10.971,10.971,0,0,1-6.544,1.783,1.205,1.205,0,0,0-1.291.787l-.217.044V32.8Zm.142,2.74v2.04a1.1,1.1,0,0,1-.736-1.043A1.131,1.131,0,0,1,33.127,35.542ZM32.5,27.3a1.1,1.1,0,0,1-.383.837,1.134,1.134,0,0,1-.353.206V26.259A1.1,1.1,0,0,1,32.5,27.3Zm-6.4-9.544A5.813,5.813,0,0,1,31.9,23.563v1.146l-.143-.026a.928.928,0,0,0-.217-.566c-.205-.278-.583-.66-1.648-1.8a1.212,1.212,0,0,0-1.553-.189,10.947,10.947,0,0,1-6.606,1.78,1.218,1.218,0,0,0-1.229.79l-.217.044V23.563h0A5.813,5.813,0,0,1,26.1,17.757ZM20.431,26.3v2.041a1.106,1.106,0,0,1-.736-1.044A1.132,1.132,0,0,1,20.431,26.3Zm-1.366,9.2a1.107,1.107,0,0,1,0,2.084Zm-.071,3.67a2.687,2.687,0,0,0,1.821-1.057l1.34,2.686h0a1.2,1.2,0,0,0,1.768.442l.082-.058.315.474-.83,4.906-6.519-2.525v-1.4h0A5.6,5.6,0,0,0,18.994,39.168ZM13.46,46.732l-1.982-2.446v-.735a6.178,6.178,0,0,0,1.992.326h0a5.663,5.663,0,0,0,1.968-.357v.772Zm.9,2.8-.282.424H12.842l-.282-.424.9-.639Zm2.089-4.054,1.318.51L16.262,49l-.408-.29h0L14.568,47.8Zm-7.181-7.2v-3.59a12.561,12.561,0,0,0,6.989-1.9c.684.734,1.1,1.171,1.275,1.371v4.118a4.133,4.133,0,0,1-8.264,0Zm1.2,7.2L12.35,47.8l-1.283.911,0,0L10.658,49l-1.5-3.015ZM6.107,63.692v-11.2a.766.766,0,1,0-1.533,0v11.2H1.662a.129.129,0,0,1-.129-.129V51.544a3.814,3.814,0,0,1,2.208-3.458l3.977-1.542L9.46,50.036h0a1.2,1.2,0,0,0,1.768.442l.082-.058.315.474L9.913,61.01l0,.023a1.227,1.227,0,0,0,.3.983l1.523,1.675H6.107Zm5.345-2.585,1.628-9.617h.762l1.628,9.617-2.009,2.21Zm13.94,2.456a.129.129,0,0,1-.129.129H22.351v-11.2a.766.766,0,1,0-1.533,0v11.2H15.191l1.523-1.675a1.225,1.225,0,0,0,.3-.983l0-.023L15.3,50.895l.315-.474.082.058a1.2,1.2,0,0,0,1.768-.442h0L19.2,46.545l3.979,1.541a3.806,3.806,0,0,1,2.21,3.458V63.562Zm.766-14.8a5.457,5.457,0,0,0-1.25-1.389l.867-5.12h.762l.867,5.123A5.46,5.46,0,0,0,26.158,48.759ZM31.5,63.692h0v-11.2a.766.766,0,1,0-1.533,0v11.2H27.053a.129.129,0,0,1-.129-.129V51.544a3.663,3.663,0,0,1,.894-2.455,4.125,4.125,0,0,1,1.314-1l3.977-1.542,1.742,3.492h0a1.2,1.2,0,0,0,1.768.442l.082-.058.315.474L35.3,61.01l0,.023a1.227,1.227,0,0,0,.3.983l1.523,1.675H31.5Zm5.345-2.585,1.628-9.617h.762l1.628,9.617-2.009,2.21Z" transform="translate(0 -16.224)" fill="#f7f7f7"/>
        </g>
      </g>
    </g>
  </g>
</svg>
