<svg xmlns="http://www.w3.org/2000/svg" width="59.503" height="59.503" viewBox="0 0 59.503 59.503"><defs><style>.a{fill:rgba(244,163,76,0.93);}</style></defs><path class="a" d="M380.036,53.8a1.162,1.162,0,0,0-1.162-1.162h-.007a1.162,1.162,0,1,0,1.169,1.162Z" transform="translate(-333.812 -46.521)"/><path class="a" d="M434.007,53.8a1.162,1.162,0,0,0-1.162-1.162h-.007a1.162,1.162,0,1,0,1.169,1.162Z" transform="translate(-381.511 -46.521)"/><path class="a" d="M326.066,53.8a1.162,1.162,0,0,0-1.162-1.162H324.9a1.162,1.162,0,1,0,1.169,1.162Z" transform="translate(-286.114 -46.521)"/><path class="a" d="M60.263,53.8a1.162,1.162,0,0,0,1.162,1.162H78.888a1.162,1.162,0,0,0,0-2.324H61.425A1.162,1.162,0,0,0,60.263,53.8Z" transform="translate(-53.259 -46.521)"/><path class="a" d="M55.775,0H19.4a1.162,1.162,0,0,0,0,2.324H55.775a1.406,1.406,0,0,1,1.4,1.4v8.51H2.324V3.728a1.406,1.406,0,0,1,1.4-1.4H8.956A1.162,1.162,0,0,0,8.956,0H3.728A3.733,3.733,0,0,0,0,3.728V46.761A3.733,3.733,0,0,0,3.728,50.49H18.255a16.682,16.682,0,0,0,10.332,4.541v3.31a1.162,1.162,0,1,0,2.324,0v-3.31A16.687,16.687,0,0,0,41.246,50.49H55.774A3.733,3.733,0,0,0,59.5,46.761V3.728A3.732,3.732,0,0,0,55.775,0ZM15.38,39.49h3.8A10.658,10.658,0,0,0,28.588,48.9v3.8A14.441,14.441,0,0,1,15.38,39.49Zm24.945-2.324a10.658,10.658,0,0,0-9.414-9.411v-3.8a14.441,14.441,0,0,1,13.21,13.207ZM29.75,46.644a8.314,8.314,0,1,1,8.315-8.315,8.323,8.323,0,0,1-8.315,8.315ZM28.588,27.755a10.656,10.656,0,0,0-9.411,9.411h-3.8A14.44,14.44,0,0,1,28.588,23.959v3.8ZM30.912,48.9a10.659,10.659,0,0,0,9.414-9.414h3.8A14.443,14.443,0,0,1,30.912,52.7Zm24.863-.739H43.29a16.648,16.648,0,0,0,3.162-8.675h3.31a1.162,1.162,0,0,0,0-2.324h-3.31A16.767,16.767,0,0,0,30.912,21.628v-3.31a1.162,1.162,0,0,0-2.324,0v3.31A16.765,16.765,0,0,0,13.05,37.166H9.74a1.162,1.162,0,0,0,0,2.324h3.31a16.649,16.649,0,0,0,3.162,8.675H3.728a1.406,1.406,0,0,1-1.4-1.4v-32.2H57.179v32.2A1.406,1.406,0,0,1,55.775,48.165Z"/><path class="a" d="M226.376,298.215a1.162,1.162,0,0,0-1.637.144l-3.506,4.184-1.368-1.159a1.162,1.162,0,0,0-1.5,1.774l2.26,1.914a1.162,1.162,0,0,0,.751.275,1.193,1.193,0,0,0,.891-.416l4.256-5.08A1.162,1.162,0,0,0,226.376,298.215Z" transform="translate(-192.621 -263.318)"/><path class="a" d="M113.157,2.324h0A1.162,1.162,0,1,0,112,1.162,1.161,1.161,0,0,0,113.16,2.324Z" transform="translate(-98.979 0)"/></svg>