<svg xmlns="http://www.w3.org/2000/svg" width="88.613" height="86.806" viewBox="0 0 88.613 86.806"><defs><style>.a{fill:rgba(244,163,76,0.93);}</style></defs><g transform="translate(0 -2.37)"><path class="a" d="M74.246,117.129a5.016,5.016,0,0,0-5.016-5.016H64.016A5.016,5.016,0,0,0,59,117.129v34.944a5.016,5.016,0,0,0,5.016,5.016H69.23a5.016,5.016,0,0,0,5.016-5.016V117.129Z" transform="translate(-36.512 -67.913)"/><path class="a" d="M15.246,148.511a5.4,5.4,0,0,0-5.4-5.4H5.4a5.4,5.4,0,0,0-5.4,5.4v22.366a5.4,5.4,0,0,0,5.4,5.4H9.849a5.4,5.4,0,0,0,5.4-5.4Z" transform="translate(0 -87.098)"/><path class="a" d="M132.246,82.129a5.016,5.016,0,0,0-5.016-5.016h-5.214A5.016,5.016,0,0,0,117,82.129v48.284a5.016,5.016,0,0,0,5.016,5.016h5.214a5.016,5.016,0,0,0,5.016-5.016Z" transform="translate(-72.404 -46.254)"/><path class="a" d="M186.571,16.62l-9.78-12.545a4.035,4.035,0,0,0-6.588,0l-9.78,12.545a3.037,3.037,0,0,0-.565,3.24,3.549,3.549,0,0,0,3.359,1.711l2.636.007V84.3a4.9,4.9,0,0,0,5.02,4.874h5.249A4.869,4.869,0,0,0,181.1,84.3V21.535l2.652.037a3.57,3.57,0,0,0,3.374-1.711A3.033,3.033,0,0,0,186.571,16.62Z" transform="translate(-98.77)"/></g></svg>