<svg xmlns="http://www.w3.org/2000/svg" width="92.04" height="93" viewBox="0 0 92.04 93"><defs><style>.a{fill:rgba(244,163,76,0.93);}</style></defs><g transform="translate(-4.98)"><g transform="translate(4.98)"><path class="a" d="M20.547,209.714c.424-.54.858-1.07,1.311-1.581.578-.665,1.186-1.321,1.822-1.947a38.235,38.235,0,0,1,7.557-5.87v-.636a2.68,2.68,0,0,0-2.68-2.68H25.579a1.592,1.592,0,0,0-1.321.684l-4.4,6.217-1.07-2.256L20.5,198.06a.743.743,0,0,0-.665-1.06H16.422a.739.739,0,0,0-.665,1.06l1.706,3.586-1.051,2.217-4.289-6.16a1.628,1.628,0,0,0-1.33-.7H7.66a2.68,2.68,0,0,0-2.68,2.68V217.5H15.843A38.513,38.513,0,0,1,20.547,209.714Z" transform="translate(-4.98 -178.011)"/><path class="a" d="M51.48,8.637A8.637,8.637,0,1,0,60.117,0,8.647,8.647,0,0,0,51.48,8.637Z" transform="translate(-46.998)"/><path class="a" d="M703.271,197a1.592,1.592,0,0,0-1.321.684l-4.4,6.217-1.07-2.256,1.706-3.586a.743.743,0,0,0-.665-1.06h-3.412a.739.739,0,0,0-.665,1.06l1.706,3.586-1.051,2.217-4.28-6.16a1.628,1.628,0,0,0-1.33-.7h-3.133a2.68,2.68,0,0,0-2.68,2.68v.684a37.985,37.985,0,0,1,7.461,5.813c.656.655,1.282,1.33,1.88,2.015.424.492.848,1,1.243,1.513a38.074,38.074,0,0,1,4.7,7.789h10.96V199.68a2.68,2.68,0,0,0-2.68-2.68Z" transform="translate(-617.356 -178.011)"/><path class="a" d="M729.181,8.637A8.637,8.637,0,1,0,737.818,0,8.647,8.647,0,0,0,729.181,8.637Z" transform="translate(-659.373)"/><path class="a" d="M772.39,790.08,760.543,781a38,38,0,0,1-5.523,6.979c-.174.174-.357.347-.54.521l12.039,9.225a4.819,4.819,0,0,0,5.87-7.644Z" transform="translate(-682.233 -705.717)"/><path class="a" d="M370.119,545.88a2.68,2.68,0,0,0-2.68-2.68h-2.978a1.592,1.592,0,0,0-1.321.684l-4.4,6.217-1.07-2.256,1.706-3.586a.743.743,0,0,0-.665-1.06H355.3a.739.739,0,0,0-.665,1.06l1.706,3.586-1.051,2.217-4.27-6.159a1.628,1.628,0,0,0-1.33-.7h-3.133a2.68,2.68,0,0,0-2.68,2.68V563.7h26.248V545.88Z" transform="translate(-311.213 -490.839)"/><path class="a" d="M399.017,363.573a8.637,8.637,0,1,0-8.637-8.637A8.647,8.647,0,0,0,399.017,363.573Z" transform="translate(-353.23 -312.918)"/><path class="a" d="M129.481,269.954A35.812,35.812,0,0,0,168,263.024c.26-.241.52-.492.771-.742a35.615,35.615,0,0,0,7.673-11.394,35.967,35.967,0,0,0,0-27.9c-.251-.6-.521-1.2-.81-1.774a35.856,35.856,0,0,0-64.429-.01c-.28.578-.559,1.176-.81,1.774a35.872,35.872,0,0,0,19.086,46.972Zm-6.131-48.746c.193-.241.386-.482.588-.713.463-.549.945-1.08,1.465-1.59a25.494,25.494,0,0,1,36.061,0q.824.824,1.562,1.706c.164.2.328.4.492.607a25.487,25.487,0,1,1-40.167-.01Z" transform="translate(-97.691 -181.716)"/></g></g></svg>